<svg version="1.2" xmlns="http://www.w3.org/2000/svg" viewBox="0 0 500 500" width="500" height="500">
	<style>
		.s0 { fill: #f6995a }
		.s1 { fill: #000000 }
	</style>
	<g id="Background">
		<path id="Path 0" class="s0" d="m219 1.45c-5.22 0.74-13.32 2.05-18 2.92-4.68 0.87-12.55 2.73-17.5 4.14-4.95 1.41-13.95 4.38-20 6.6-6.05 2.23-17.3 7.12-25 10.89-7.7 3.76-19.4 10.45-26 14.86-6.6 4.41-15.81 11.09-20.47 14.83-4.66 3.75-13.19 11.53-18.95 17.31-5.77 5.78-14.07 15-18.45 20.5-4.39 5.5-10.95 14.5-14.58 20-3.64 5.5-9.15 14.95-12.25 21-3.09 6.05-7.65 15.95-10.12 22-2.48 6.05-5.86 15.72-7.53 21.5-1.67 5.78-3.73 13.65-4.58 17.5-0.85 3.85-2.27 11.28-3.15 16.5-0.9 5.38-1.83 18.61-2.14 30.5-0.35 13.28-0.1 25.41 0.67 33 0.66 6.6 2.25 17.18 3.53 23.5 1.27 6.32 3.75 16.45 5.51 22.5 1.75 6.05 5.21 15.95 7.69 22 2.47 6.05 7.03 15.95 10.12 22 3.1 6.05 8.61 15.5 12.25 21 3.63 5.5 10.19 14.5 14.58 20 4.38 5.5 12.68 14.73 18.45 20.5 5.76 5.77 14.29 13.56 18.95 17.31 4.66 3.74 13.87 10.42 20.47 14.83 6.6 4.41 18.3 11.1 26 14.86 7.7 3.77 18.95 8.66 25 10.89 6.05 2.22 15.05 5.2 20 6.63 4.95 1.43 15.53 3.78 23.5 5.24 13.48 2.46 16.51 2.64 43 2.64 26.49 0 29.52-0.18 43-2.64 7.98-1.46 18.55-3.81 23.5-5.24 4.95-1.43 13.95-4.41 20-6.63 6.05-2.23 17.3-7.12 25-10.89 7.7-3.76 19.4-10.45 26-14.86 6.6-4.41 15.81-11.09 20.47-14.83 4.66-3.75 13.19-11.54 18.95-17.31 5.77-5.77 14.07-15 18.45-20.5 4.39-5.5 10.95-14.5 14.58-20 3.64-5.5 9.15-14.95 12.25-21 3.09-6.05 7.65-15.95 10.12-22 2.48-6.05 5.86-15.73 7.53-21.5 1.67-5.77 3.73-13.65 4.58-17.5 0.85-3.85 2.27-11.27 3.15-16.5 0.9-5.38 1.83-18.61 2.14-30.5 0.35-13.28 0.1-25.41-0.67-33-0.66-6.6-2.25-17.18-3.53-23.5-1.27-6.32-3.75-16.45-5.51-22.5-1.75-6.05-5.21-15.95-7.69-22-2.47-6.05-7.03-15.95-10.12-22-3.1-6.05-8.61-15.5-12.25-21-3.63-5.5-10.19-14.5-14.58-20-4.38-5.5-12.68-14.72-18.45-20.5-5.76-5.78-14.29-13.56-18.95-17.31-4.66-3.74-13.87-10.42-20.47-14.83-6.6-4.41-18.3-11.1-26-14.86-7.7-3.77-18.95-8.66-25-10.89-6.05-2.22-15.05-5.2-20-6.63-4.95-1.43-15.52-3.76-23.5-5.18-12.51-2.22-17.93-2.62-39.5-2.89-17.17-0.21-27.98 0.11-34.5 1.04z"/>
		<path id="Path 1" class="s1" d="m127.5 99.92c-2.75 0.97-6.8 2.89-9 4.26-2.2 1.37-5.98 4.71-8.39 7.41-2.41 2.7-5.44 7.16-6.71 9.91-1.28 2.75-2.79 8.15-3.34 12-0.64 4.4-1.02 47.61-1.02 116.5 0 68.89 0.38 112.1 1.02 116.5 0.55 3.85 2.16 9.48 3.56 12.5 1.54 3.31 5.01 7.91 8.72 11.55 4.22 4.14 8.05 6.83 12.16 8.5l6 2.45c120.23 0.5 139.16 0.27 142.5-0.62 2.48-0.66 6.64-2.25 9.25-3.54 2.61-1.29 7.05-4.7 9.86-7.59 2.81-2.89 5.96-6.94 7-9 1.04-2.06 2.57-6.34 3.4-9.5 1.24-4.75 1.5-14.35 1.5-55l-0.01-49.25c40.69-0.07 55.65-0.45 59.5-0.89 4.1-0.47 9.65-2.01 13.38-3.71 4.18-1.9 8.18-4.79 11.65-8.4 2.9-3.03 6.51-8.2 8.02-11.5 1.52-3.3 3.13-8.93 3.57-12.5 0.45-3.57 0.82-25.18 0.83-48 0-22.92-0.44-44.63-1.01-48.5-0.55-3.85-2.06-9.25-3.34-12-1.27-2.75-4.3-7.21-6.71-9.91-2.41-2.7-6.19-6.03-8.39-7.4-2.2-1.38-6.48-3.33-9.5-4.36-5.25-1.77-10.9-1.86-122.5-1.77-109.25 0.08-117.33 0.2-122 1.86z"/>
		<path id="Path 2" class="s0" d="m149.19 181.93l0.31 33.94c51.79 0.58 57.64 0.93 60.5 2.22 1.93 0.86 5.07 2.94 7 4.62 1.93 1.67 4.51 5.01 5.75 7.42 1.55 3 2.29 6.25 2.35 10.37 0.06 3.5-0.59 7.67-1.55 10-0.91 2.2-3.09 5.5-4.85 7.34-1.76 1.83-5 4.31-7.2 5.5-3.77 2.03-5.69 2.19-33 2.66l-29 0.5-0.5 85.5h105c-0.01-79.29 0.38-98.64 1.1-102.5 0.6-3.3 2.02-7.8 3.15-10 1.12-2.2 3.49-5.8 5.27-8 1.78-2.2 5.66-5.68 8.61-7.73 2.95-2.05 7.62-4.47 10.37-5.38 4.1-1.35 10.69-1.71 36.75-2.02l31.75-0.37v-68h-202.11z"/>
	</g>
</svg>
